<svg xmlns="http://www.w3.org/2000/svg" id="intellistream-logo" viewBox="0 0 291.042 68.792"><defs><clipPath id="a"><path d="M903.4 210.45h-36.36c-6.96 30.79 23.4 49.51 38.05 71.5 4.72 7.08 8.22 14.2 2.98 22.21-2.24 3.42-9.67 6.98-13.53 6.98h-34.96v28.9h47.09c16.04 0 34.13-15.62 38.04-30.95 7.88-30.88-11.75-45.58-28.23-66.5-6.99-8.88-17.03-20.11-13.08-32.14z"/></clipPath></defs><path d="M36.05 20.624c0-4.151-2.445-5.458-6.369-5.458h-8.3c-3.866 0-6.255 1.307-6.255 5.458v23.993h-3.638V19.714c0-5.8 3.696-8.072 9.097-8.072H30.59c5.4 0 9.096 2.275 9.096 8.072v24.903H36.05zM272.439 44.617H268.8V20.624c0-4.207-2.503-5.458-6.255-5.458h-1.876c-3.98 0-6.368 1.307-6.368 5.458v23.993h-3.638V19.714c0-5.8 3.696-8.072 9.096-8.072h3.297c3.751 0 6.368 1.307 7.503 3.582 1.194-2.273 3.696-3.582 7.334-3.582h3.355c5.4 0 9.097 2.275 9.097 8.072v24.903h-3.696V20.624c0-4.151-2.387-5.458-6.255-5.458h-1.876c-3.924 0-6.083 1.307-6.083 5.4v24.048zM137.499 10.512h-9.62c-1.842 8.146 6.19 13.1 10.067 18.918 1.249 1.873 2.175 3.757.788 5.876-.592.905-2.558 1.847-3.58 1.847h-9.25v7.646h12.46c4.244 0 9.03-4.133 10.065-8.189 2.084-8.17-3.11-12.06-7.47-17.594-1.85-2.35-4.505-5.321-3.46-8.504z" style="fill:#ffffff;stroke-width:.264583"/><g clip-path="url(#a)" transform="matrix(.26458 0 0 .26458 -101.526 -45.17)"><path d="m843.57 202.77-26.8 25.37M839.86 222.73 817.34 228M811.49 241.54l-7.27 18.53M804.94 261.5l20.1 3.42M830.17 284.45l-24.8-21.52 13.11 22.95M879.92 192.93l17.25 23.95M879.78 192.5l26.09-.14M911.57 193.36l17.25 21.52M899.31 218.16l25.52-1.99M898.37 229.55l25.4-3.1M852.84 204.91c.71.43 32.79 46.33 32.79 46.33M853.12 228.57l18.25 29.51-1.14 21.67" style="fill:none;stroke:#fff;stroke-width:.55px;stroke-miterlimit:10"/><path d="m901.73 200.91-24.37 22.39-18.68 24.37M922.97 226.57l1.43 39.92M942.36 228.71l-2.42 24.95 33.88-14.23" style="fill:none;stroke:#fff;stroke-width:.55px;stroke-miterlimit:10"/><path d="m973.58 240.4.71-7.13-21.38-18.1-8.13-12.55M999.53 256.94c-.14.43-3.56 13.97-3.56 13.97M943.74 229.59l29.98 37.18-4.42 4.71-2.99 14.11 3.42 9.41M970.73 297.14l-6.13 9.84-7.13 10.4 2.99 13.4M890.47 282.03l8.13 14.25-13.83 5.56M888.76 353.88l-7.41-34.22-14.26-1.85.81-30.92M956.85 318.26l-22.95 17.48-37.16-9.23-1 9.4M902.02 312.39l18.67 11.41" style="fill:none;stroke:#fff;stroke-width:.55px;stroke-miterlimit:10"/><path d="M900.4 292.6c.86.29 27.99 27.92 27.99 27.92l4.56 6.13 1.43 9.98-13.54 7.84 6.7 17.11-12.26 3.42-4.32 17.41M837.01 276.04l-6.7 16.25 18.68 10.12 3.85 55.31M851.93 253.25l-13.63-4.72-3.28-10.69 5.98-16.4M865.67 199.35l3.84 6.27.15 14.11-17.82 7.27M811.21 234.27l-7.27 26.52-15.97-4.28" style="fill:none;stroke:#fff;stroke-width:.55px;stroke-miterlimit:10"/><path d="m867.9 316.26-1.52 16.52 22.38 21.1-5.42 7.55-29.51-2.99-.99-.72-30.94-6.7 12.26-4.27v-13.97l8.7-9.41-19.82-4.85-21.81 15.4-1.42-27.8-13.97-15.68 9.55-10.84 8.55-18.81M887.05 251.09l12.83 12.83-12.83 14.12M910.57 191.08l-12.12 27.23-13.68 14.68 11.83.85-10.98 16.11M943.36 228.71l-20.67-2.85M920.26 214.6l9.98 1.57" style="fill:none;stroke:#fff;stroke-width:.55px;stroke-miterlimit:10"/><path d="m828.03 264.92 26.23-12.4 8.7 17.11 5.27 18.39 3.57-8.42 7.69-19.24 6.56-9.55-16.54-45.9M928.06 362.73l55.07-32.52-22.09 1.28M984.13 286.87l1.71 24.81-3.5 17.64M966.31 285.59l-23.66-2.14-12.41 16.25-12.54-17.67 15.25-9.27 49.75 14.54-6.84-20.95 24.9-7.68-26.94-19.24.43 25.51" style="fill:none;stroke:#fff;stroke-width:.55px;stroke-miterlimit:10"/><path d="m898.98 237-.24 26.78-18.53-3.42s-15.68 9.27-16.39 9.41M921.55 266.92l-34.64 13.68M852.69 305.26l12.69 26.8M866.81 316.1l17.53-13.26M900.73 312.11l-19.24 5.84M950.49 261.79l-18.54 9.12M955.05 318.38c-.43-.29-25.09-17.25-25.09-17.25" style="fill:none;stroke:#fff;stroke-width:.55px;stroke-miterlimit:10"/><path d="m943.93 199.2-21.17 15.19-25.66 17.74-11.55 48.76-35.92 19.24 52.6-5.77M826.53 293.08l28.02-41.49 37.63-15.82M891.33 350.6l28.44-7.7" style="fill:none;stroke:#fff;stroke-width:.55px;stroke-miterlimit:10"/><path d="m896.13 232.15 27.08 33.65-5.51 16.23M898.69 294.02c1.14 0 32.5 5.13 32.5 5.13M895.56 292.6l23.94-9.13M812.3 234.15l23.95 13.4M885.55 280.89l13.14 16.27" style="fill:none;stroke:#fff;stroke-width:.55px;stroke-miterlimit:10"/><path d="m900.4 297.44 21.04 46.7" class="l" style="fill:#fff"/><path d="m957.14 315.12 28.43-4.22M833.69 293.17l-11.98 24.52M884.72 182.26l-5.36 8.94M848.23 197.94l15.39.86M788.64 257.53l6.75 22.07M786.36 294.88c.29.86 13.97 39.92 13.97 39.92M847.66 296.59l6.27-41.06M941.74 231.01l-42.19 31.65M800.9 306.28l47.61-2.56M941.46 252.45l-14.26 11.92M833.12 287.46l38.68-7.86M887.86 280.91l-9.13-21.96M851.65 198.8c1.14.86 7.41 55.03 7.41 55.03M921.79 323.67l11.16 2.98M899.83 296.02l1.43 14.54M931.19 301.44l-2.28 17.96M891.28 355.32l17.68 25.95M865.9 377.84l16.16 4.12M888.76 353.88l-25.14 22.54M801.23 333.92l22.49 17.49M825.99 354.47l38.2 24.23" style="fill:none;stroke:#fff;stroke-width:.55px;stroke-miterlimit:10"/><circle cx="885.29" cy="180.76" r="6.22" class="h" style="fill:#98bbc8"/><circle cx="849.54" cy="197.48" r="9" class="h" style="fill:#98bbc8"/><circle cx="809.74" cy="232.44" r="8.86" class="h" style="fill:#98bbc8"/><circle cx="827.85" cy="265.44" r="5.13" class="h" style="fill:#98bbc8"/><circle cx="799.65" cy="307.06" r="5.51" class="h" style="fill:#98bbc8"/><circle cx="801.09" cy="333.24" r="4.26" class="h" style="fill:#98bbc8"/><circle cx="833.54" cy="346.66" r="2.8" class="h" style="fill:#98bbc8"/><circle cx="795.06" cy="278.79" r="3.18" class="h" style="fill:#98bbc8"/><circle cx="866.2" cy="333.37" r="2.43" class="h" style="fill:#98bbc8"/><circle cx="866.91" cy="317.41" r="2.43" class="h" style="fill:#98bbc8"/><circle cx="881.16" cy="319.71" r="2.82" class="h" style="fill:#98bbc8"/><circle cx="895.62" cy="335.1" r="2.82" class="h" style="fill:#98bbc8"/><circle cx="926.99" cy="360.76" r="2.82" class="h" style="fill:#98bbc8"/><circle cx="915.63" cy="365.15" r="2.25" class="h" style="fill:#98bbc8"/><circle cx="932.88" cy="326.78" r="1.78" class="h" style="fill:#98bbc8"/><circle cx="884.74" cy="301.92" r="2.34" class="h" style="fill:#98bbc8"/><circle cx="842.72" cy="323.52" r="2.34" class="h" style="fill:#98bbc8"/><circle cx="834.78" cy="332.95" r="2.42" class="h" style="fill:#98bbc8"/><circle cx="822.61" cy="318.76" r="3.06" class="h" style="fill:#98bbc8"/><circle cx="964.26" cy="306.61" r="2.14" class="h" style="fill:#98bbc8"/><circle cx="970.21" cy="296.23" r="2" class="h" style="fill:#98bbc8"/><circle cx="966.32" cy="285.14" r="2.08" class="h" style="fill:#98bbc8"/><circle cx="941.87" cy="282.93" r="2.08" class="h" style="fill:#98bbc8"/><circle cx="969.33" cy="271.75" r="1.16" class="h" style="fill:#98bbc8"/><circle cx="950.36" cy="261.6" r="1.16" class="h" style="fill:#98bbc8"/><circle cx="985.57" cy="310.9" r="2" class="h" style="fill:#98bbc8"/><circle cx="961" cy="330.82" r="2.24" class="h" style="fill:#98bbc8"/><circle cx="928.35" cy="320.29" r="1.51" class="h" style="fill:#98bbc8"/><circle cx="818.01" cy="285.86" r="1.51" class="h" style="fill:#98bbc8"/><circle cx="901.12" cy="311.87" r="1.51" class="h" style="fill:#98bbc8"/><circle cx="882.06" cy="381.96" r="1.51" class="h" style="fill:#98bbc8"/><circle cx="909.75" cy="381.49" r="3" class="h" style="fill:#98bbc8"/><circle cx="864.13" cy="377.31" r="4.2" class="h" style="fill:#98bbc8"/><circle cx="852" cy="357.54" r="2.77" class="h" style="fill:#98bbc8"/><circle cx="920.64" cy="323.34" r="2.82" class="h" style="fill:#98bbc8"/><circle cx="933.9" cy="335.74" r="2.82" class="h" style="fill:#98bbc8"/><circle cx="896.33" cy="327.39" r="2.34" class="h" style="fill:#98bbc8"/><circle cx="786.36" cy="291.61" r="6.72" class="h" style="fill:#98bbc8"/><circle cx="853.19" cy="252.09" r="8.41" class="h" style="fill:#98bbc8"/><circle cx="830.31" cy="291.29" r="8.41" class="h" style="fill:#98bbc8"/><circle cx="848.47" cy="301.07" r="8.26" class="h" style="fill:#98bbc8"/><circle cx="823.72" cy="351.41" r="6.89" class="h" style="fill:#98bbc8"/><circle cx="888.72" cy="353.33" r="6.89" class="h" style="fill:#98bbc8"/><circle cx="921.44" cy="344.14" r="6.89" class="h" style="fill:#98bbc8"/><circle cx="956.26" cy="318.73" r="6.07" class="h" style="fill:#98bbc8"/><circle cx="898.39" cy="294.77" r="7.05" class="h" style="fill:#98bbc8"/><circle cx="887.69" cy="280.4" r="6.53" class="h" style="fill:#98bbc8"/><circle cx="922.86" cy="265.09" r="5.89" class="h" style="fill:#98bbc8"/><circle cx="999.26" cy="258.51" r="6.21" class="h" style="fill:#98bbc8"/><circle cx="982.34" cy="329.32" r="6.19" class="h" style="fill:#98bbc8"/><circle cx="929.9" cy="299.34" r="5.1" class="h" style="fill:#98bbc8"/><circle cx="942.95" cy="229.33" r="2.98" class="h" style="fill:#98bbc8"/><circle cx="932.08" cy="272.64" r="2.98" class="h" style="fill:#98bbc8"/><circle cx="930.62" cy="276.62" r="1" class="h" style="fill:#98bbc8"/><circle cx="918.57" cy="282.58" r="2.98" class="h" style="fill:#98bbc8"/><circle cx="974.6" cy="266.9" r="2.98" class="h" style="fill:#98bbc8"/><circle cx="983.15" cy="287.43" r="2.98" class="h" style="fill:#98bbc8"/><circle cx="995.35" cy="270" r="2.82" class="h" style="fill:#98bbc8"/><circle cx="939.31" cy="252.78" r="2.17" class="h" style="fill:#98bbc8"/><circle cx="922.65" cy="226.11" r="2.22" class="h" style="fill:#98bbc8"/><circle cx="929.81" cy="216.29" r="2.22" class="h" style="fill:#98bbc8"/><circle cx="896.26" cy="233.91" r="7.13" class="h" style="fill:#98bbc8"/><circle cx="944.08" cy="200.64" r="6.41" class="h" style="fill:#98bbc8"/><circle cx="922.47" cy="214.82" r="3.87" class="h" style="fill:#98bbc8"/><circle cx="909.63" cy="190.77" r="4.4" class="h" style="fill:#98bbc8"/><circle cx="838.23" cy="248.42" r="2.69" class="h" style="fill:#98bbc8"/><circle cx="835.38" cy="238.57" r="3.22" class="h" style="fill:#98bbc8"/><circle cx="852.06" cy="226.67" r="3.22" class="h" style="fill:#98bbc8"/><circle cx="840.42" cy="222.73" r="1.99" class="h" style="fill:#98bbc8"/><circle cx="869.42" cy="205.78" r="1.43" class="h" style="fill:#98bbc8"/><circle cx="869.35" cy="219.17" r="2.45" class="h" style="fill:#98bbc8"/><circle cx="865.07" cy="199.35" r="2.45" class="h" style="fill:#98bbc8"/><path d="M879.36 191.2c.78 0 1.41.63 1.41 1.41 0 .78-.63 1.41-1.41 1.41-.78 0-1.41-.63-1.41-1.41 0-.78.63-1.41 1.41-1.41z" class="h" style="fill:#98bbc8"/><circle cx="876.15" cy="224.99" r="2.17" class="h" style="fill:#98bbc8"/><circle cx="952.15" cy="214.98" r="2.82" class="h" style="fill:#98bbc8"/><circle cx="974.17" cy="233.59" r="2.82" class="h" style="fill:#98bbc8"/><circle cx="973.82" cy="239.43" r="2.82" class="h" style="fill:#98bbc8"/><circle cx="879.21" cy="260.31" r="2.98" class="h" style="fill:#98bbc8"/><circle cx="886.38" cy="250.97" r="2.17" class="h" style="fill:#98bbc8"/><circle cx="863" cy="269.64" r="2.17" class="h" style="fill:#98bbc8"/><circle cx="870.83" cy="279.5" r="2.61" class="h" style="fill:#98bbc8"/><circle cx="836.86" cy="275.88" r="2.8" class="h" style="fill:#98bbc8"/><circle cx="803.83" cy="260.96" r="2.19" class="h" style="fill:#98bbc8"/><circle cx="787.72" cy="256.74" r="2.71" class="h" style="fill:#98bbc8"/><circle cx="899.49" cy="264.1" r="1.85" class="h" style="fill:#98bbc8"/><circle cx="868.37" cy="287.87" r="1.85" class="h" style="fill:#98bbc8"/><circle cx="882.7" cy="361.22" r="1.85" class="h" style="fill:#98bbc8"/><circle cx="872.51" cy="354.23" r="1.85" class="h" style="fill:#98bbc8"/><circle cx="884.88" cy="232.99" r="2.36" class="h" style="fill:#98bbc8"/><circle cx="898.28" cy="218.31" r="2.36" class="h" style="fill:#98bbc8"/><circle cx="902.67" cy="199.87" r="1.84" class="h" style="fill:#98bbc8"/><circle cx="871.69" cy="258.4" r="1.85" class="h" style="fill:#98bbc8"/></g><path d="M387.82 339.35h14.61v-167.6h-.73l-13.88 10.37zM975.29 214.72v-42.35l-13.76 10.27v156.71h13.76V227.83h34.38v-13.11z" class="j" style="fill:#ffffff" transform="matrix(.26458 0 0 .26458 -101.526 -45.17)"/><circle cx="118.47" cy="9.3" r="2.162" class="j" style="fill:#ffffff;stroke-width:.264583"/><path d="M824.01 339.35h13.76V214.9l-13.76 10.27zM743.65 339.35h13.76V171.77l-13.76 10.28zM783.19 182.49v156.86h13.75V172.21zM569.35 171.75l-13.07 9.76v157.84h13.76V227.83h34.38v-13.11h-34.38v-42.97z" class="j" style="fill:#ffffff" transform="matrix(.26458 0 0 .26458 -101.526 -45.17)"/><path d="M89.548 19.772c0-5.8-3.638-8.13-9.04-8.13H70.331c-5.4 0-9.097 2.275-9.097 8.072v16.658c0 5.856 3.638 8.245 9.041 8.245H85.99l3.22-3.469H71.472c-5.23 0-6.538-1.535-6.538-7.39l24.617-9.779v-4.207zm-3.696 1.99L64.873 30.12v-9.324c0-4.151 2.162-5.627 6.482-5.627h8.017c4.38 0 6.483 1.137 6.483 5.117v1.479z" class="i" style="fill:#ffffff;stroke-width:.264583"/><path d="M181.192 11.642h-3.355c-5.4 0-9.096 2.386-9.096 8.186v24.789h3.638V20.624c0-4.151 2.386-5.458 6.368-5.458h.008l2.437-3.48zM236.167 11.642h-16.034l.035.018-2.76 3.45h17.963c3.865 0 6.254 1.307 6.254 5.514v2.217h-15.634c-5.4 0-9.096 2.273-9.096 8.073v5.514c0 5.8 3.696 8.186 9.096 8.186h10.176c5.4 0 9.096-2.387 9.096-8.186V19.714c0-5.8-3.696-8.072-9.096-8.072zm5.458 21.833c0 5.914-1.307 7.676-6.254 7.676h-8.586c-4.379 0-6.255-1.366-6.255-5.856v-3.751c0-4.038 2.559-5.173 6.255-5.173h14.838v7.107z" class="j" style="fill:#ffffff;stroke-width:.264583"/><path d="M212.347 19.772c0-5.8-3.638-8.13-9.041-8.13H193.13c-5.4 0-9.096 2.275-9.096 8.072v16.658c0 5.856 3.638 8.245 9.04 8.245h15.516l3.415-3.469h-17.737c-5.231 0-6.538-1.535-6.538-7.39l24.617-9.779zm-3.694 1.99-20.979 8.358v-9.324c0-4.151 2.162-5.627 6.483-5.627h8.016c4.38 0 6.483 1.137 6.483 5.117v1.479z" class="i" style="fill:#ffffff;stroke-width:.264583"/><path d="M236.75 50.562c1.155-.095 2.444.095 3.343.743l8.483 6.575c1.228 1.278.646 2.154-.571 3.144-2.363 1.915-5.02 3.915-7.493 5.738-.688.506-1.21.945-2.112 1.178-1.558.4-3.863.11-4.712-1.21-.789-1.232.058-1.973 1.042-2.783 1.207-.99 2.538-1.884 3.75-2.868 1.119-.91 1.83-1.91.568-3.085-1.431-1.333-3.572-2.585-4.892-3.95-1.645-1.707.561-3.307 2.593-3.477z" class="k" style="fill:#ffffff;stroke:#ffffff;stroke-width:.0661458px;stroke-miterlimit:10"/><path d="M250.534 50.562c1.156-.095 2.445.095 3.344.743l8.483 6.575c1.227 1.278.645 2.154-.572 3.144-2.362 1.915-5.019 3.915-7.493 5.738-.688.506-1.209.945-2.111 1.178-1.558.4-3.863.11-4.712-1.21-.789-1.232.058-1.973 1.042-2.783 1.207-.99 2.538-1.884 3.75-2.868 1.118-.91 1.83-1.91.568-3.085-1.431-1.333-3.572-2.585-4.892-3.95-1.646-1.707.56-3.307 2.593-3.477z" class="k" style="fill:#ffffff;stroke:#ffffff;stroke-width:.0661458px;stroke-miterlimit:10"/><path d="M263.962 50.557c1.156-.096 2.444.095 3.344.743l8.482 6.575c1.228 1.278.646 2.154-.571 3.143-2.363 1.916-5.02 3.916-7.493 5.739-.688.505-1.21.945-2.111 1.177-1.559.4-3.863.112-4.713-1.209-.788-1.233.059-1.974 1.043-2.783 1.206-.99 2.537-1.884 3.749-2.868 1.12-.91 1.83-1.91.569-3.085-1.432-1.334-3.572-2.585-4.892-3.95-1.646-1.707.56-3.308 2.593-3.477z" class="k" style="fill:#ffffff;stroke:#ffffff;stroke-width:.0661458px;stroke-miterlimit:10"/><path d="M277.842 50.562c1.156-.095 2.444.095 3.344.743l8.482 6.575c1.228 1.278.646 2.154-.571 3.144-2.363 1.915-5.02 3.915-7.493 5.738-.688.506-1.21.945-2.111 1.178-1.559.4-3.863.11-4.713-1.21-.788-1.232.059-1.973 1.043-2.783 1.206-.99 2.537-1.884 3.749-2.868 1.12-.91 1.83-1.91.569-3.085-1.432-1.333-3.572-2.585-4.892-3.95-1.646-1.707.56-3.307 2.593-3.477z" class="k" style="fill:#ffffff;stroke:#ffffff;stroke-width:.0661458px;stroke-miterlimit:10"/></svg>